<svg xmlns="http://www.w3.org/2000/svg" viewBox="0 0 96 120" x="0px" y="0px"><path d="m53.23,56.06c9.17,0,12.79-7.32,12.83-7.41.24-.5.03-1.09-.47-1.33-.5-.24-1.09-.03-1.33.47-.17.35-4.21,8.39-15.25,5.73v-8.99c0-.55-.45-1-1-1s-1,.45-1,1v8.99c-11.03,2.65-15.08-5.37-15.25-5.73-.24-.5-.84-.71-1.33-.47-.5.24-.71.83-.47,1.33.04.09,3.66,7.41,12.83,7.41,1.29,0,2.71-.15,4.23-.49v13.67c-11.03,2.65-15.08-5.37-15.25-5.73-.24-.5-.84-.71-1.33-.47-.5.24-.71.83-.47,1.33.04.09,3.66,7.41,12.83,7.41,1.29,0,2.7-.15,4.23-.49v13.67c-11.03,2.65-15.08-5.37-15.25-5.73-.24-.5-.84-.71-1.33-.47-.5.24-.71.83-.47,1.33.04.09,3.66,7.41,12.83,7.41,1.57,0,3.32-.22,5.23-.73,1.91.5,3.65.73,5.23.73,9.17,0,12.79-7.32,12.83-7.41.24-.5.03-1.09-.47-1.33-.5-.24-1.09-.03-1.33.47-.17.35-4.21,8.4-15.25,5.74v-13.68c1.52.33,2.93.49,4.23.49,9.17,0,12.79-7.32,12.83-7.41.24-.5.03-1.09-.47-1.33-.5-.24-1.09-.03-1.33.47-.17.35-4.22,8.38-15.25,5.73v-13.67c1.52.33,2.93.49,4.23.49Z"/><path d="m25.67,23.26h1.23c.55,0,1-.45,1-1s-.45-1-1-1h-1.23c-.55,0-1,.45-1,1s.45,1,1,1Z"/><path d="m92,6.83c.05-.55-.36-1.04-.91-1.08-.56-.05-1.04.36-1.08.91-.02.21-2.02,20.89-14.78,27.84-6.86,3.74-15.68,2.89-26.22-2.52V15.86c0-.55-.45-1-1-1s-1,.45-1,1v16.11c-10.54,5.41-19.36,6.26-26.22,2.52C8.01,27.54,6.01,6.86,6,6.65c-.05-.55-.53-.96-1.08-.91-.55.05-.96.53-.91,1.08.06.69,1.31,13.6,8.31,22.81.62,1.63,10.28,28.59,6.89,59.52-.06.55.34,1.04.88,1.1.04,0,.07,0,.11,0,.5,0,.94-.38.99-.89,2.64-24.09-2.6-46.51-5.52-56.08,1.25,1.12,2.62,2.12,4.14,2.95,3.11,1.69,6.55,2.54,10.32,2.54,5.33,0,11.3-1.71,17.87-5.09,6.56,3.38,12.54,5.09,17.87,5.09,3.77,0,7.21-.85,10.32-2.54,1.52-.83,2.89-1.83,4.14-2.95-2.92,9.56-8.16,31.99-5.52,56.08.06.51.49.89.99.89.04,0,.07,0,.11,0,.55-.06.95-.55.88-1.1-3.39-30.93,6.27-57.89,6.89-59.52,7-9.21,8.25-22.11,8.31-22.81Z"/><path d="m69.1,23.26h1.23c.55,0,1-.45,1-1s-.45-1-1-1h-1.23c-.55,0-1,.45-1,1s.45,1,1,1Z"/><text x="0" y="111" fill="#000000" font-size="5px" font-weight="bold" font-family="'Helvetica Neue', Helvetica, Arial-Unicode, Arial, Sans-serif">Created by Vanicon studio</text><text x="0" y="116" fill="#000000" font-size="5px" font-weight="bold" font-family="'Helvetica Neue', Helvetica, Arial-Unicode, Arial, Sans-serif">from the Noun Project</text></svg>