<svg xmlns="http://www.w3.org/2000/svg" version="1.1" viewBox="-5.0 -10.0 110.0 135.0">
 <path d="m12.93 74h-0.17969c-1.3789-0.10156-2.4102-1.2891-2.3203-2.6719 0.011718-0.14062 0.98828-14.031 0.98828-23.82 0-11.141 6.6914-19.102 18.84-22.41 8.3281-2.2695 7.3516-8.3789 7.2109-9.0703-0.26953-1.3398 0.58984-2.6719 1.9297-2.9492 1.3398-0.28125 2.6602 0.55078 2.9609 1.8906 0.03125 0.10938 2.3711 11.371-10.781 14.949-6.9219 1.8906-15.16 6.4688-15.16 17.59 0 9.9688-1 24.039-1.0117 24.18-0.089844 1.3203-1.1914 2.3203-2.4883 2.3203z"/>
 <path d="m28.93 87c-1.3789 0-2.5-1.1211-2.5-2.5 0-7.7188-0.64063-17.039-1.5898-18.621-2.2383-3.3594-3.2305-14.059-3.4102-16.172-0.12109-1.3789 0.91016-2.5781 2.2812-2.6992 1.3789-0.10937 2.5781 0.91016 2.6992 2.2812 0.46094 5.4609 1.5781 12.301 2.5898 13.82 2.1797 3.2812 2.4219 16.051 2.4219 21.391 0 1.3789-1.1211 2.5-2.5 2.5z"/>
 <path d="m87.07 74c-1.3008 0-2.3984-1.0117-2.4883-2.3203 0-0.14063-1.0117-14.199-1.0117-24.18 0-11.121-8.2383-15.699-15.16-17.59-13.148-3.5898-10.809-14.84-10.781-14.949 0.30078-1.3516 1.6289-2.1992 2.9805-1.8984 1.3398 0.30078 2.1914 1.6211 1.8984 2.9609-0.14062 0.71094-1.1016 6.8008 7.2109 9.0586 12.148 3.3086 18.84 11.27 18.84 22.41 0 9.7891 0.98047 23.68 0.98828 23.82 0.10156 1.3789-0.94141 2.5703-2.3203 2.6719h-0.17969z"/>
 <path d="m71.07 87c-1.3789 0-2.5-1.1211-2.5-2.5 0-5.3398 0.23828-18.109 2.4219-21.391 1.0117-1.5195 2.1289-8.3594 2.5898-13.82 0.10938-1.3789 1.3203-2.3984 2.6992-2.2812 1.3789 0.10938 2.3984 1.3203 2.2812 2.6992-0.17969 2.1094-1.1719 12.809-3.4102 16.18-0.94141 1.5703-1.5781 10.898-1.5781 18.609 0 1.3789-1.1211 2.5-2.5 2.5z"/>
 <path d="m50 68.5c-1.3789 0-2.5-1.1211-2.5-2.5v-28.18c0-1.3789 1.1211-2.5 2.5-2.5s2.5 1.1211 2.5 2.5v28.18c0 1.3789-1.1211 2.5-2.5 2.5z"/>
<text x="0.0" y="117.5" font-size="5.0" font-weight="bold" font-family="Arbeit Regular, Helvetica, Arial-Unicode, Arial, Sans-serif" fill="#000000">Created by Kim Naces</text><text x="0.0" y="122.5" font-size="5.0" font-weight="bold" font-family="Arbeit Regular, Helvetica, Arial-Unicode, Arial, Sans-serif" fill="#000000">from Noun Project</text></svg>