<svg xmlns:dc="http://purl.org/dc/elements/1.1/" xmlns:cc="http://creativecommons.org/ns#" xmlns:rdf="http://www.w3.org/1999/02/22-rdf-syntax-ns#" xmlns:svg="http://www.w3.org/2000/svg" xmlns="http://www.w3.org/2000/svg" xmlns:sodipodi="http://sodipodi.sourceforge.net/DTD/sodipodi-0.dtd" xmlns:inkscape="http://www.inkscape.org/namespaces/inkscape" version="1.1" x="0px" y="0px" viewBox="0 0 100 125"><g transform="translate(0,-952.36218)"><path style="text-indent:0;text-transform:none;direction:ltr;block-progression:tb;baseline-shift:baseline;color:#000000;enable-background:accumulate;" d="m 36.792779,958.1865 a 2.0001999,2.0001999 0 0 0 -1.511468,0.59793 c -4.163351,4.24805 -6.54502,9.13838 -6.623752,14.17213 -0.07877,5.03374 2.182819,10.04849 6.654756,14.41461 a 2.0001999,2.0001999 0 0 0 1.622196,0.55586 l 11.195717,-1.26563 a 2.0001999,2.0001999 0 0 0 0.863681,-0.31004 l 5.255185,-3.41043 c 3.202937,9.8417 6.606318,21.38307 11.014157,30.60527 -3.156874,-1.6648 -5.905949,-2.8181 -8.702149,-3.2532 -3.851859,-0.5994 -7.579914,0.4 -11.742732,3.0539 -4.185142,-7.6161 -10.203343,-11.61 -16.696736,-12.6707 -7.064717,-1.15395 -14.512288,0.9668 -21.1690634,4.5942 a 2.0001999,2.0001999 0 0 0 -1.043044,1.7483 l -0.118488,29.9487 a 2.0001999,2.0001999 0 0 0 0.678756,1.5093 c 8.9669414,7.8878 19.9130674,7.6722 30.9707364,3.7559 19.635626,7.5431 38.332877,5.2099 55.133861,-7.2505 a 2.0001999,2.0001999 0 0 0 0.7629,-1.1782 c 2.93021,-13.3655 -1.6712,-31.5901 -11.635329,-46.93987 C 71.737829,971.51425 56.164216,958.99195 36.792779,958.1865 z m 0.728575,4.05044 c 17.329358,1.08178 31.515377,12.46274 40.825558,26.80512 9.27546,14.28884 13.47342,31.46134 11.22895,43.17064 -15.888186,11.5162 -32.745646,13.4052 -51.377949,6.0281 a 2.0001999,2.0001999 0 0 0 -1.427315,-0.017 c -10.314496,3.7982 -19.206602,4.2041 -26.9767204,-2.1714 l 0.110728,-27.8161 c 5.8298744,-2.9789 12.0673004,-4.5121 17.5714734,-3.613 5.832247,0.9527 11.018763,4.4402 14.780019,12.5056 a 2.0001999,2.0001999 0 0 0 2.995193,0.7674 c 4.530295,-3.3223 7.37837,-4.1678 10.694161,-3.6518 3.315791,0.516 7.388008,2.7085 13.389271,6.183 a 2.0001999,2.0001999 0 0 0 2.69511,-2.7959 C 66.071196,1008.1654 61.50079,991.99446 57.240956,979.21452 a 2.0001999,2.0001999 0 0 0 -2.986335,-1.04527 l -7.041224,4.56975 -9.761811,1.10397 c -3.403807,-3.57333 -4.850752,-7.22864 -4.794519,-10.8237 0.05623,-3.59492 1.648771,-7.27348 4.864287,-10.78273 z" fill="#000000" fill-opacity="1" fill-rule="evenodd" stroke="none" marker="none" visibility="visible" display="inline" overflow="visible"/><path style="text-indent:0;text-transform:none;direction:ltr;block-progression:tb;baseline-shift:baseline;color:#000000;enable-background:accumulate;" d="m 23.483197,1009.6574 c -2.303504,0.023 -4.629224,0.5639 -7.434283,1.5823 a 2.0001999,2.0001999 0 1 0 1.365271,3.7592 c 6.010724,-2.1823 7.640327,-2.1176 14.154413,0.8504 a 2.0001999,2.0001999 0 1 0 1.658693,-3.6396 c -3.857421,-1.7576 -6.782421,-2.5823 -9.744094,-2.5523 z" fill="#000000" fill-opacity="1" fill-rule="evenodd" stroke="none" marker="none" visibility="visible" display="inline" overflow="visible"/></g><text x="0" y="115" fill="#000000" font-size="5px" font-weight="bold" font-family="'Helvetica Neue', Helvetica, Arial-Unicode, Arial, Sans-serif">Created by Royyan Razka</text><text x="0" y="120" fill="#000000" font-size="5px" font-weight="bold" font-family="'Helvetica Neue', Helvetica, Arial-Unicode, Arial, Sans-serif">from the Noun Project</text></svg>