<svg xmlns="http://www.w3.org/2000/svg" version="1.1" viewBox="-5.0 -10.0 110.0 135.0">
 <path d="m13.352 49.855c0.10547 1.2734 0.011719 2.5469-0.27734 3.7812-0.66797 2.875-1.8047 8.6875-1.8789 15.352-0.007812 0.75781-0.16406 2.1875-0.17187 2.2461-0.046876 0.45703-0.46875 0.78516-0.91406 0.73047-0.45312-0.050782-0.78125-0.46094-0.73047-0.91406 0-0.015625 0.15625-1.4102 0.16016-2.082 0.074219-6.8203 1.2344-12.77 1.9219-15.711 0.25-1.0664 0.32812-2.168 0.23828-3.2734-0.20703-2.5469-0.15234-5.7891-0.14844-6.0273-0.23438-9.5 5.5391-15.301 13.348-15.953 1.2812-0.11719 2.4922-0.41016 3.6016-0.87109 3.5547-1.4766 7.4375-3.7383 10.07-5.375 1.2539-0.77734 2-2.125 2-3.6016v-2.6758c0.035157-1.0977 1.6211-1.0938 1.6562 0v2.6758c0 2.0547-1.0391 3.9258-2.7812 5.0078-2.6836 1.668-6.6523 3.9766-10.309 5.4961-1.2617 0.52344-2.6367 0.85938-4.082 0.99219-3.5742 0.32812-11.887 2.3828-11.844 14.305 0 0.070313-0.0625 3.3555 0.14453 5.8906zm77.27 21.199c0-0.015626-0.15625-1.4102-0.16016-2.082-0.074219-6.8164-1.2344-12.77-1.9219-15.711-0.25-1.0664-0.32812-2.168-0.23828-3.2734 0.20703-2.5469 0.15234-5.7891 0.14844-6.0273 0.22656-9.5039-5.5273-15.297-13.348-15.953-1.2812-0.11719-2.4922-0.41016-3.6016-0.87109-3.5508-1.4766-7.4375-3.7383-10.07-5.375-1.2539-0.77734-2-2.125-2-3.6016v-2.6758c-0.03125-1.0898-1.6172-1.1016-1.6562 0v2.6758c0 2.0547 1.0391 3.9258 2.7812 5.0078 2.6836 1.668 6.6523 3.9766 10.309 5.4961 1.2617 0.52344 2.6367 0.85938 4.082 0.99219 3.5781 0.32031 11.906 2.4102 11.844 14.324 0 0.035156 0.058594 3.3672-0.14453 5.8711-0.10547 1.2734-0.011719 2.5469 0.27734 3.7812 0.66797 2.875 1.8047 8.6914 1.8789 15.352 0.007813 0.75781 0.16406 2.1875 0.17188 2.2461 0.14062 1.0547 1.7227 0.94141 1.6445-0.18359zm-44.441-8.5195c-7.2305 2.9062-14.719 3.125-19.078 0.55859-2.7773-1.6367-4.7812-10.145-5.3203-13.281-0.078125-0.44922-0.50781-0.75391-0.95703-0.67578s-0.75391 0.50391-0.67578 0.95703c0.14844 0.875 1.1797 6.5859 3.1641 10.672-0.003906 0.9375 0 7.0625 0.72266 9.2734l1.2266 14.547c0.035156 0.45703 0.44531 0.79687 0.89453 0.75391 0.45703-0.039063 0.79297-0.4375 0.75391-0.89453l-1.2344-14.641c-0.007812-0.035157-0.011719-0.070313-0.019531-0.10156-0.41406-1.1758-0.58203-3.8672-0.65234-6.2539 0.39062 0.44922 0.80859 0.82031 1.25 1.0781 6.0234 3.3203 13.734 2.2031 20.539-0.44922 1-0.4375 0.41406-1.9141-0.61719-1.5352zm0.26953 4.5312c-2.6797 0.125-7.6836 3.1133-8.2461 3.4531-0.39062 0.23828-0.51562 0.74609-0.27734 1.1367 0.23828 0.39453 0.75391 0.51562 1.1367 0.27734 1.4258-0.86328 5.5508-3.1289 7.4648-3.2188 1.0898-0.082032 1.0195-1.6719-0.078125-1.6562zm32.723-17.934c-0.44922-0.078124-0.87891 0.22656-0.95703 0.67578-0.53906 3.1406-2.543 11.648-5.3203 13.281-4.3594 2.5664-11.848 2.3477-19.078-0.55859-0.42578-0.17188-0.90625 0.035156-1.0781 0.46094-0.17188 0.42578 0.035157 0.90625 0.46094 1.0781 6.793 2.6523 14.523 3.7695 20.539 0.44922 0.44141-0.26172 0.85938-0.62891 1.25-1.0781-0.070312 2.3828-0.23828 5.0781-0.65234 6.25-0.046876 0.125-1.2305 14.621-1.2578 14.75-0.058594 1.0898 1.5234 1.2305 1.6523 0.14062l1.2266-14.547c0.72266-2.2109 0.72656-8.3359 0.72266-9.2734 1.9883-4.082 3.0156-9.7969 3.1641-10.668 0.078125-0.44922-0.22656-0.87891-0.67578-0.95703zm-17.379 21.387c0.40234 0.23828-8.9375-5.4375-9.1133-2.668-0.019532 0.45703 0.33203 0.84375 0.78906 0.86719 1.9141 0.089844 6.0391 2.3516 7.4648 3.2188 0.13281 0.082031 0.28125 0.12109 0.42969 0.12109 0.82031 0.003906 1.1484-1.1016 0.42969-1.5352zm-28.156-40.457c-0.94922-0.53906-1.7773 0.82031-0.85938 1.418-0.36328-0.21484 8.9375 5.4336 9.1133 2.668 0.019531-0.45703-0.33203-0.84375-0.78906-0.86719-1.9141-0.089844-6.0391-2.3516-7.4648-3.2188zm25.246 4.8711c2.6797-0.125 7.6836-3.1133 8.2461-3.4531 0.39062-0.23828 0.51562-0.74609 0.27734-1.1367s-0.74609-0.51562-1.1367-0.27734c-1.4258 0.86328-5.5508 3.1289-7.4648 3.2188-1.0938 0.089844-1.0195 1.668 0.078124 1.6562zm-29.703 24.66c-1.0938 0.035156-1.0938 1.6211 0 1.6562h2.3164c1.0938-0.035156 1.0938-1.6211 0-1.6562h-2.3164zm41.551 1.6562c1.0938-0.035156 1.0938-1.6211 0-1.6562h-2.3164c-0.45703 0-0.82812 0.37109-0.82812 0.82812s0.37109 0.82812 0.82812 0.82812z"/>
<text x="0.0" y="117.5" font-size="5.0" font-weight="bold" font-family="Arbeit Regular, Helvetica, Arial-Unicode, Arial, Sans-serif" fill="#000000">Created by ondom tv</text><text x="0.0" y="122.5" font-size="5.0" font-weight="bold" font-family="Arbeit Regular, Helvetica, Arial-Unicode, Arial, Sans-serif" fill="#000000">from Noun Project</text></svg>