<svg xmlns:dc="http://purl.org/dc/elements/1.1/" xmlns:cc="http://creativecommons.org/ns#" xmlns:rdf="http://www.w3.org/1999/02/22-rdf-syntax-ns#" xmlns:svg="http://www.w3.org/2000/svg" xmlns="http://www.w3.org/2000/svg" xmlns:sodipodi="http://sodipodi.sourceforge.net/DTD/sodipodi-0.dtd" xmlns:inkscape="http://www.inkscape.org/namespaces/inkscape" version="1.1" x="0px" y="0px" viewBox="0 0 32 40" enable-background="new 0 0 32 32" xml:space="preserve"><path connector-curvature="0" d="M19.414,23.586c0.633,1.881,0.828,3.881,0.57,5.85  c-0.035,0.273,0.158,0.524,0.432,0.561c0.273,0.035,0.525-0.158,0.561-0.432l0,0c0.277-2.119,0.066-4.272-0.615-6.298  c-0.607-1.806-0.676-3.749-0.197-5.593c-0.537-1.078-0.879-2.244-1.008-3.443c-1.162-3.469-2.053-7.022-2.662-10.631  c-0.047-0.271-0.305-0.455-0.576-0.409c-0.211,0.036-0.375,0.2-0.41,0.409c-0.609,3.608-1.5,7.162-2.664,10.631  c-0.127,1.199-0.469,2.365-1.008,3.443c0.479,1.844,0.41,3.787-0.197,5.593c-0.682,2.025-0.891,4.179-0.615,6.298  c0.037,0.273,0.287,0.467,0.561,0.432c0.275-0.036,0.467-0.287,0.432-0.561c-0.258-1.969-0.063-3.969,0.57-5.85  c0.629-1.87,0.734-3.876,0.305-5.801c0.484-1.057,0.801-2.184,0.936-3.338c0.881-2.642,1.607-5.334,2.174-8.061  c0.566,2.727,1.293,5.419,2.174,8.061c0.135,1.154,0.451,2.281,0.936,3.338C18.68,19.71,18.785,21.716,19.414,23.586L19.414,23.586z  "/><path connector-curvature="0" d="M24.818,16.559c0.85,1.914,1.07,4.049,0.629,6.096  c-0.49,2.266-0.814,4.565-0.969,6.879c-0.021,0.275-0.262,0.481-0.537,0.461c-0.271-0.021-0.477-0.256-0.461-0.527  c0.158-2.362,0.488-4.71,0.988-7.023c0.414-1.921,0.182-3.924-0.664-5.697c0.104-1.374,0.037-2.754-0.193-4.112  c0.688-3.31,0.74-6.718,0.154-10.047c-0.047-0.272,0.137-0.531,0.408-0.578s0.529,0.134,0.578,0.405  c0.596,3.391,0.553,6.863-0.123,10.239C24.834,13.944,24.898,15.254,24.818,16.559L24.818,16.559z"/><path connector-curvature="0" d="M7.182,16.559c-0.078-1.305-0.014-2.614,0.191-3.905  C6.695,9.277,6.654,5.805,7.25,2.414C7.297,2.142,7.557,1.96,7.828,2.008c0.273,0.047,0.455,0.307,0.406,0.578  C7.65,5.915,7.703,9.324,8.391,12.634c-0.232,1.358-0.297,2.738-0.193,4.112c-0.846,1.772-1.08,3.776-0.664,5.697  c0.5,2.313,0.83,4.661,0.988,7.023c0.018,0.275-0.189,0.514-0.465,0.531c-0.275,0.02-0.516-0.189-0.533-0.465l0,0  c-0.154-2.313-0.479-4.613-0.969-6.879C6.113,20.607,6.332,18.473,7.182,16.559L7.182,16.559z"/><text x="0" y="47" fill="#000000" font-size="5px" font-weight="bold" font-family="'Helvetica Neue', Helvetica, Arial-Unicode, Arial, Sans-serif">Created by Pham Duy Phuong Hung</text><text x="0" y="52" fill="#000000" font-size="5px" font-weight="bold" font-family="'Helvetica Neue', Helvetica, Arial-Unicode, Arial, Sans-serif">from the Noun Project</text></svg>